<mxfile host="65bd71144e">
    <diagram id="E0kFScOOPzt0D7Hpz-KD" name="Page-1">
        <mxGraphModel dx="1028" dy="764" grid="1" gridSize="10" guides="1" tooltips="1" connect="1" arrows="1" fold="1" page="1" pageScale="1" pageWidth="850" pageHeight="1100" math="0" shadow="0">
            <root>
                <mxCell id="0"/>
                <mxCell id="1" parent="0"/>
                <mxCell id="2" value="Marketing Tools" style="swimlane;whiteSpace=wrap;html=1;" vertex="1" parent="1">
                    <mxGeometry x="20" y="20" width="820" height="500" as="geometry"/>
                </mxCell>
                <mxCell id="4" value="Basic Data" style="swimlane;whiteSpace=wrap;html=1;" vertex="1" parent="2">
                    <mxGeometry x="20" y="40" width="300" height="200" as="geometry"/>
                </mxCell>
                <mxCell id="5" value="Input 1" style="rounded=0;whiteSpace=wrap;html=1;" vertex="1" parent="4">
                    <mxGeometry x="20" y="40" width="260" height="30" as="geometry"/>
                </mxCell>
                <mxCell id="6" value="Input 2" style="rounded=0;whiteSpace=wrap;html=1;" vertex="1" parent="4">
                    <mxGeometry x="20" y="80" width="260" height="30" as="geometry"/>
                </mxCell>
                <mxCell id="7" value="Input 3" style="rounded=0;whiteSpace=wrap;html=1;" vertex="1" parent="4">
                    <mxGeometry x="20" y="120" width="260" height="30" as="geometry"/>
                </mxCell>
                <mxCell id="8" value="button Save" style="rounded=1;whiteSpace=wrap;html=1;" vertex="1" parent="4">
                    <mxGeometry x="110" y="160" width="80" height="30" as="geometry"/>
                </mxCell>
                <mxCell id="9" value="Data Input\Output" style="swimlane;whiteSpace=wrap;html=1;" vertex="1" parent="2">
                    <mxGeometry x="20" y="250" width="300" height="170" as="geometry"/>
                </mxCell>
                <mxCell id="10" value="Input File text" style="rounded=0;whiteSpace=wrap;html=1;" vertex="1" parent="9">
                    <mxGeometry x="10" y="40" width="270" height="30" as="geometry"/>
                </mxCell>
                <mxCell id="11" value="Output Dir" style="rounded=0;whiteSpace=wrap;html=1;" vertex="1" parent="9">
                    <mxGeometry x="10" y="80" width="270" height="30" as="geometry"/>
                </mxCell>
                <mxCell id="12" value="button Save" style="rounded=1;whiteSpace=wrap;html=1;" vertex="1" parent="9">
                    <mxGeometry x="110" y="120" width="80" height="30" as="geometry"/>
                </mxCell>
                <mxCell id="13" value="Log List" style="swimlane;whiteSpace=wrap;html=1;" vertex="1" parent="2">
                    <mxGeometry x="340" y="40" width="460" height="320" as="geometry"/>
                </mxCell>
                <mxCell id="14" value="&lt;h1&gt;&lt;span style=&quot;background-color: initial; font-size: 12px; font-weight: normal;&quot;&gt;Lorem ipsum dolor sit amet, consectetur adipisicing elit, sed do eiusmod tempor incididunt ut labore et dolore magna aliqua.&lt;/span&gt;&lt;span style=&quot;background-color: initial; font-size: 12px; font-weight: normal;&quot;&gt;Lorem ipsum dolor sit amet, consectetur adipisicing elit, sed do eiusmod tempor incididunt ut labore et dolore magna aliqua.&lt;/span&gt;&lt;span style=&quot;background-color: initial; font-size: 12px; font-weight: normal;&quot;&gt;Lorem ipsum dolor sit amet, consectetur adipisicing elit, sed do eiusmod tempor incididunt ut labore et dolore magna aliqua.&lt;/span&gt;&lt;span style=&quot;background-color: initial; font-size: 12px; font-weight: normal;&quot;&gt;Lorem ipsum dolor sit amet, consectetur adipisicing elit, sed do eiusmod tempor incididunt ut labore et dolore magna aliqua.&lt;/span&gt;&lt;span style=&quot;background-color: initial; font-size: 12px; font-weight: normal;&quot;&gt;Lorem ipsum dolor sit amet, consectetur adipisicing elit, sed do eiusmod tempor incididunt ut labore et dolore magna aliqua.&lt;/span&gt;&lt;/h1&gt;" style="text;html=1;strokeColor=none;fillColor=none;spacing=5;spacingTop=-20;whiteSpace=wrap;overflow=hidden;rounded=0;" vertex="1" parent="13">
                    <mxGeometry x="10" y="35" width="440" height="265" as="geometry"/>
                </mxCell>
                <mxCell id="15" value="" style="rounded=0;whiteSpace=wrap;html=1;" vertex="1" parent="2">
                    <mxGeometry x="340" y="370" width="460" height="50" as="geometry"/>
                </mxCell>
                <mxCell id="16" value="Error Messags" style="text;html=1;strokeColor=none;fillColor=none;align=center;verticalAlign=middle;whiteSpace=wrap;rounded=0;" vertex="1" parent="2">
                    <mxGeometry x="330" y="370" width="120" height="30" as="geometry"/>
                </mxCell>
                <mxCell id="17" value="Telegram" style="rounded=1;whiteSpace=wrap;html=1;" vertex="1" parent="2">
                    <mxGeometry x="20" y="440" width="220" height="40" as="geometry"/>
                </mxCell>
                <mxCell id="18" value="WhatsApp" style="rounded=1;whiteSpace=wrap;html=1;" vertex="1" parent="2">
                    <mxGeometry x="260" y="440" width="300" height="40" as="geometry"/>
                </mxCell>
                <mxCell id="19" value="Facebook" style="rounded=1;whiteSpace=wrap;html=1;" vertex="1" parent="2">
                    <mxGeometry x="580" y="440" width="220" height="40" as="geometry"/>
                </mxCell>
            </root>
        </mxGraphModel>
    </diagram>
</mxfile>